<?xml version="1.0" encoding="UTF-8" standalone="no"?>
<svg
   xmlns:dc="http://purl.org/dc/elements/1.1/"
   xmlns:cc="http://creativecommons.org/ns#"
   xmlns:rdf="http://www.w3.org/1999/02/22-rdf-syntax-ns#"
   xmlns:svg="http://www.w3.org/2000/svg"
   xmlns="http://www.w3.org/2000/svg"
   xmlns:sodipodi="http://sodipodi.sourceforge.net/DTD/sodipodi-0.dtd"
   xmlns:inkscape="http://www.inkscape.org/namespaces/inkscape"
   width="632.94202mm"
   height="11.538mm"
   viewBox="0 0 632.94205 11.538"
   version="1.1"
   id="svg1815"
   inkscape:version="1.0 (4035a4fb49, 2020-05-01)"
   sodipodi:docname="black-curtain.svg">
  <defs
     id="defs1809">
    <mask
       id="mask1129-0"
       maskUnits="userSpaceOnUse">
      <path
         d="m -1860.686,1611.1095 a 46.154475,35.254491 0 0 1 -32.615,10.3255 46.154475,35.254491 0 0 1 -32.2406,-10.0125 v 40.8511 366.0077 36.4669 a 46.154475,34.874613 0 0 1 32.2406,-9.9039 46.154475,34.874613 0 0 1 32.615,10.2137 v 0 a 46.154475,34.874613 0 0 1 65.2652,-0.01 v -0.052 a 46.154475,34.874613 0 0 1 32.6455,-10.2073 46.154475,34.874613 0 0 1 32.6162,10.2145 46.154475,34.874613 0 0 1 32.657,-10.2153 46.154475,34.874613 0 0 1 32.6155,10.2145 46.154475,34.874613 0 0 1 65.2479,-0.018 v 0.062 a 46.154475,34.874613 0 0 1 32.6469,-10.2066 46.154475,34.874613 0 0 1 32.6147,10.2138 46.154475,34.874613 0 0 1 65.2652,-0.01 v -0.051 a 46.154475,34.874613 0 0 1 32.6458,-10.2074 46.154475,34.874613 0 0 1 32.6157,10.2146 46.154475,34.874613 0 0 1 32.657,-10.2154 46.154475,34.874613 0 0 1 32.6157,10.2146 46.154475,34.874613 0 0 1 65.2479,-0.019 v 0.062 a 46.154475,34.874613 0 0 1 32.6468,-10.2066 46.154475,34.874613 0 0 1 32.6141,10.2138 46.154475,34.874613 0 0 1 65.2648,-0.01 v -0.051 a 46.154475,34.874613 0 0 1 32.6469,-10.2074 46.154475,34.874613 0 0 1 32.6155,10.2138 46.154475,34.874613 0 0 1 32.6572,-10.2146 46.154475,34.874613 0 0 1 32.6155,10.2146 46.154475,34.874613 0 0 1 64.84244,-0.3211 v -36.392 -366.0077 -40.7872 a 46.154475,35.254491 0 0 1 -64.84244,-0.3242 46.154475,35.254491 0 0 1 -32.6155,10.3255 46.154475,35.254491 0 0 1 -32.6572,-10.3255 46.154475,35.254491 0 0 1 -32.6155,10.3247 46.154475,35.254491 0 0 1 -32.6469,-10.3183 v -0.052 a 46.154475,35.254491 0 0 1 -65.2648,-0.01 46.154475,35.254491 0 0 1 -32.6143,10.3248 46.154475,35.254491 0 0 1 -32.6466,-10.3176 v 0.062 a 46.154475,35.254491 0 0 1 -65.2479,-0.019 46.154475,35.254491 0 0 1 -32.6157,10.3263 46.154475,35.254491 0 0 1 -32.657,-10.3263 46.154475,35.254491 0 0 1 -32.6157,10.3255 46.154475,35.254491 0 0 1 -32.6458,-10.3184 v -0.053 a 46.154475,35.254491 0 0 1 -65.2652,-0.01 46.154475,35.254491 0 0 1 -32.615,10.3248 46.154475,35.254491 0 0 1 -32.6466,-10.3176 v 0.062 a 46.154475,35.254491 0 0 1 -65.2479,-0.019 46.154475,35.254491 0 0 1 -32.6155,10.3264 46.154475,35.254491 0 0 1 -32.657,-10.3272 46.154475,35.254491 0 0 1 -32.6157,10.3264 46.154475,35.254491 0 0 1 -32.646,-10.3184 v -0.053 a 46.154475,35.254491 0 0 1 -65.2652,-0.01 z"
         style="opacity:1;fill:#ffa82f;fill-opacity:1;stroke:#000000;stroke-width:0;stroke-miterlimit:4;stroke-dasharray:none;stroke-opacity:1"
         id="path1131-6" />
    </mask>
    <filter
       id="filter1151-0"
       inkscape:label="Greyscale"
       style="color-interpolation-filters:sRGB">
      <feColorMatrix
         result="fbSourceGraphic"
         id="feColorMatrix1149-5"
         values="0.301205 0.60241 0.072 0 0 0.301205 0.60241 0.072 0 0 0.301205 0.60241 0.072 0 0 0 0 0 1 0 " />
      <feColorMatrix
         id="feColorMatrix1153-4"
         values="0 0 0 -1 0 0 0 0 -1 0 0 0 0 -1 0 0 0 0 1 0"
         in="fbSourceGraphic"
         result="fbSourceGraphicAlpha" />
      <feColorMatrix
         in="fbSourceGraphic"
         values="0.301205 0.60241 0.072 0 0 0.301205 0.60241 0.072 0 0 0.301205 0.60241 0.072 0 0 0 0 0 1 0 "
         id="feColorMatrix1155-4" />
    </filter>
  </defs>
  <sodipodi:namedview
     id="base"
     pagecolor="#787878"
     bordercolor="#666666"
     borderopacity="1.0"
     inkscape:pageopacity="0"
     inkscape:pageshadow="2"
     inkscape:zoom="0.25942877"
     inkscape:cx="741.44695"
     inkscape:cy="-178.55327"
     inkscape:document-units="mm"
     inkscape:current-layer="layer1"
     inkscape:document-rotation="0"
     showgrid="false"
     inkscape:snap-page="true"
     inkscape:window-width="1920"
     inkscape:window-height="1027"
     inkscape:window-x="1432"
     inkscape:window-y="-8"
     inkscape:window-maximized="1"
     units="mm"
     width="632.942mm"
     height="632.942in" />
  <metadata
     id="metadata1812">
    <rdf:RDF>
      <cc:Work
         rdf:about="">
        <dc:format>image/svg+xml</dc:format>
        <dc:type
           rdf:resource="http://purl.org/dc/dcmitype/StillImage" />
        <dc:title />
      </cc:Work>
    </rdf:RDF>
  </metadata>
  <g
     inkscape:label="Layer 1"
     inkscape:groupmode="layer"
     id="layer1">
    <path
       d="m 358.72076,11.5383 a 29.866738,22.813318 0 0 0 21.10569,-6.68228 29.866738,22.813318 0 0 0 42.22223,0.0124 v -0.0403 a 29.866738,22.813318 0 0 0 21.12584,6.6766 29.866738,22.813318 0 0 0 21.10465,-6.68125 29.866738,22.813318 0 0 0 42.23308,0 v 0.0336 a 29.866738,22.813318 0 0 0 21.12636,6.67711 29.866738,22.813318 0 0 0 21.10569,-6.68124 29.866738,22.813318 0 0 0 21.13256,6.68176 29.866738,22.813318 0 0 0 21.10517,-6.68176 29.866738,22.813318 0 0 0 41.96023,0.21032 V 4.80953 0 H 0 V 4.80953 5.0214 A 29.866738,22.813318 0 0 0 20.86282,11.50059 29.866738,22.813318 0 0 0 41.9685,4.81883 v -0.003 a 29.866738,22.813318 0 0 0 42.23309,0.007 v 0.0341 a 29.866738,22.813318 0 0 0 21.12533,6.67711 29.866738,22.813318 0 0 0 21.10569,-6.68228 29.866738,22.813318 0 0 0 21.13256,6.6828 29.866738,22.813318 0 0 0 21.10568,-6.68228 29.866738,22.813318 0 0 0 42.22223,0.0124 v -0.0403 a 29.866738,22.813318 0 0 0 21.12584,6.6766 29.866738,22.813318 0 0 0 21.10518,-6.68125 29.866738,22.813318 0 0 0 42.23308,0.007 v 0.0341 a 29.866738,22.813318 0 0 0 21.12532,6.67711 29.866738,22.813318 0 0 0 21.1057,-6.68176 29.866738,22.813318 0 0 0 21.13256,6.68228 z"
       style="fill:#000000;fill-opacity:1;stroke:#000000;stroke-width:0;stroke-miterlimit:4;stroke-dasharray:none;stroke-opacity:1"
       id="rect1790-8" />
  </g>
</svg>
