<?xml version="1.0" encoding="UTF-8" standalone="no"?>
<svg
   xmlns:dc="http://purl.org/dc/elements/1.1/"
   xmlns:cc="http://creativecommons.org/ns#"
   xmlns:rdf="http://www.w3.org/1999/02/22-rdf-syntax-ns#"
   xmlns:svg="http://www.w3.org/2000/svg"
   xmlns="http://www.w3.org/2000/svg"
   xmlns:sodipodi="http://sodipodi.sourceforge.net/DTD/sodipodi-0.dtd"
   xmlns:inkscape="http://www.inkscape.org/namespaces/inkscape"
   width="632.94202mm"
   height="11.538mm"
   viewBox="0 0 632.94202 11.538"
   version="1.1"
   id="svg1815"
   inkscape:version="1.0 (4035a4fb49, 2020-05-01)"
   sodipodi:docname="white-curtain.svg">
  <defs
     id="defs1809" />
  <sodipodi:namedview
     inkscape:showpageshadow="false"
     id="base"
     pagecolor="#6b6b6b"
     bordercolor="#666666"
     borderopacity="1.0"
     inkscape:pageopacity="0"
     inkscape:pageshadow="2"
     inkscape:zoom="0.3845902"
     inkscape:cx="1631.2678"
     inkscape:cy="-172.21817"
     inkscape:document-units="mm"
     inkscape:current-layer="layer1"
     inkscape:document-rotation="0"
     showgrid="false"
     inkscape:snap-page="true"
     inkscape:window-width="1920"
     inkscape:window-height="1027"
     inkscape:window-x="-8"
     inkscape:window-y="-8"
     inkscape:window-maximized="1" />
  <metadata
     id="metadata1812">
    <rdf:RDF>
      <cc:Work
         rdf:about="">
        <dc:format>image/svg+xml</dc:format>
        <dc:type
           rdf:resource="http://purl.org/dc/dcmitype/StillImage" />
        <dc:title />
      </cc:Work>
    </rdf:RDF>
  </metadata>
  <g
     inkscape:label="Layer 1"
     inkscape:groupmode="layer"
     id="layer1">
    <path
       d="M 274.22149,-3.1354991e-4 A 29.866738,22.813318 0 0 0 253.11581,6.6819657 29.866738,22.813318 0 0 0 210.89358,6.6695647 v 0.040308 a 29.866738,22.813318 0 0 0 -21.12584,-6.67659627 29.866738,22.813318 0 0 0 -21.10465,6.68124577 29.866738,22.813318 0 0 0 -42.23308,0 v -0.03359 A 29.866738,22.813318 0 0 0 105.30365,0.00382056 29.866738,22.813318 0 0 0 84.197962,6.6850664 29.866738,22.813318 0 0 0 63.0654,0.0033038 29.866738,22.813318 0 0 0 41.960228,6.6850664 29.866738,22.813318 0 0 0 0,6.4747433 V 6.7284747 11.538 H 632.94225 V 6.7284747 6.5166011 A 29.866738,22.813318 0 0 0 612.07943,0.03741024 29.866738,22.813318 0 0 0 590.97375,6.7191728 v 0.00259 a 29.866738,22.813318 0 0 0 -42.23308,-0.00672 v -0.03411 A 29.866738,22.813318 0 0 0 527.61533,0.00382056 29.866738,22.813318 0 0 0 506.50965,6.6860998 29.866738,22.813318 0 0 0 485.37709,0.0033038 29.866738,22.813318 0 0 0 464.27141,6.6855831 29.866738,22.813318 0 0 0 422.04917,6.6731808 v 0.040308 A 29.866738,22.813318 0 0 0 400.92333,0.03689348 29.866738,22.813318 0 0 0 379.81815,6.7181393 29.866738,22.813318 0 0 0 337.58507,6.7114215 V 6.6773149 A 29.866738,22.813318 0 0 0 316.45976,2.0321573e-4 29.866738,22.813318 0 0 0 295.35405,6.6819657 29.866738,22.813318 0 0 0 274.22149,-3.1354991e-4 Z"
       style="fill:#f2f2f2;fill-opacity:1;stroke:#000000;stroke-width:0;stroke-miterlimit:4;stroke-dasharray:none;stroke-opacity:1"
       id="rect1790" />
    <rect
       y="25.587921"
       x="30.73912"
       height="105.28881"
       width="765.86792"
       id="rect1914"
       style="fill:#ffffff;stroke:#000000;stroke-width:0" />
  </g>
</svg>
